<?xml version="1.0" encoding="utf-8" standalone="no"?>
<!DOCTYPE svg PUBLIC "-//W3C//DTD SVG 1.1//EN"
  "http://www.w3.org/Graphics/SVG/1.1/DTD/svg11.dtd">
<!-- Created with matplotlib (http://matplotlib.org/) -->
<svg height="232pt" version="1.1" viewBox="0 116 576 232" width="576pt" xmlns="http://www.w3.org/2000/svg" xmlns:xlink="http://www.w3.org/1999/xlink">
 <defs>
  <style type="text/css">
*{stroke-linecap:butt;stroke-linejoin:round;stroke-miterlimit:100000;}
  </style>
 </defs>
 <g id="figure_1">
  <g id="patch_1">
   <path d="M 0 432
L 576 432
L 576 0
L 0 0
z
" style="fill:#ffffff;"/>
  </g>
  <g id="axes_1">
   <g id="patch_2">
    <path d="M 72 305.28
L 518.4 305.28
L 518.4 126.72
L 72 126.72
z
" style="fill:#ffffff;"/>
   </g>
   <g id="line2d_1">
    <path clip-path="url(#p21b2f77d53)" d="M 72.53568 305.10144
L 73.07136 304.92288
L 73.96416 304.74432
L 74.32128 304.3872
L 75.21408 304.20864
L 75.39264 304.03008
L 75.92832 303.85152
L 76.10688 303.67296
L 76.464 303.4944
L 77.3568 303.31584
L 77.53536 303.13728
L 78.07104 302.95872
L 78.2496 302.78016
L 78.78528 302.6016
L 78.96384 302.42304
L 80.928 301.7088
L 81.10656 301.53024
L 82.7136 300.99456
L 82.89216 300.816
L 84.4992 300.10176
L 86.46336 299.38752
L 87.71328 298.85184
L 89.67744 298.1376
L 89.856 297.95904
L 90.39168 297.78048
L 90.57024 297.60192
L 91.6416 297.42336
L 91.82016 297.2448
L 94.49856 295.99488
L 95.39136 295.63776
L 96.9984 294.92352
L 97.71264 294.74496
L 97.8912 294.5664
L 99.14112 294.03072
L 100.03392 293.85216
L 100.39104 293.49504
L 101.4624 293.13792
L 101.64096 292.95936
L 102.53376 292.60224
L 105.0336 291.70944
L 105.21216 291.53088
L 105.9264 291.17376
L 106.64064 290.9952
L 106.8192 290.81664
L 107.53344 290.63808
L 107.712 290.45952
L 108.6048 290.1024
L 108.78336 289.92384
L 111.2832 289.03104
L 111.81888 288.67392
L 112.71168 288.49536
L 112.89024 288.3168
L 114.49728 287.60256
L 115.21152 287.424
L 115.39008 287.24544
L 116.28288 286.88832
L 117.17568 286.5312
L 118.60416 285.99552
L 118.78272 285.81696
L 119.67552 285.45984
L 120.56832 285.10272
L 120.92544 284.92416
L 121.63968 284.7456
L 121.81824 284.56704
L 122.35392 284.38848
L 122.53248 284.20992
L 123.60384 283.8528
L 125.568 282.96
L 126.28224 282.78144
L 126.4608 282.60288
L 126.81792 282.42432
L 127.88928 282.0672
L 129.49632 281.35296
L 130.21056 281.1744
L 130.38912 280.99584
L 131.28192 280.63872
L 131.99616 280.46016
L 132.17472 280.2816
L 133.06752 279.92448
L 133.96032 279.74592
L 134.31744 279.3888
L 136.2816 278.496
L 136.81728 278.31744
L 136.99584 278.13888
L 138.42432 277.6032
L 140.03136 276.88896
L 141.99552 276.17472
L 142.70976 275.8176
L 143.424 275.63904
L 143.60256 275.46048
L 144.13824 275.28192
L 144.3168 275.10336
L 145.2096 274.9248
L 145.38816 274.74624
L 145.92384 274.56768
L 146.1024 274.38912
L 147.17376 274.032
L 147.35232 273.85344
L 148.24512 273.49632
L 148.7808 273.31776
L 148.95936 273.1392
L 150.03072 272.78208
L 150.92352 272.42496
L 151.81632 272.06784
L 152.17344 271.88928
L 153.06624 271.71072
L 153.42336 271.3536
L 154.31616 270.99648
L 155.38752 270.63936
L 155.56608 270.4608
L 156.28032 270.10368
L 157.35168 269.74656
L 157.88736 269.568
L 158.06592 269.38944
L 159.31584 268.85376
L 160.03008 268.6752
L 160.20864 268.49664
L 160.92288 268.13952
L 162.70848 267.60384
L 162.88704 267.42528
L 163.24416 267.24672
L 164.31552 267.06816
L 164.67264 266.71104
L 165.92256 266.17536
L 166.6368 265.9968
L 166.81536 265.81824
L 167.17248 265.63968
L 167.88672 265.46112
L 168.06528 265.28256
L 168.60096 265.104
L 168.77952 264.92544
L 169.67232 264.56832
L 170.02944 264.38976
L 171.1008 264.03264
L 171.27936 263.85408
L 172.17216 263.49696
L 173.06496 263.13984
L 173.60064 262.96128
L 173.7792 262.78272
L 174.49344 262.60416
L 174.672 262.4256
L 175.5648 262.06848
L 176.4576 261.71136
L 176.99328 261.5328
L 177.17184 261.35424
L 178.06464 261.17568
L 178.2432 260.99712
L 178.60032 260.81856
L 179.31456 260.64
L 179.49312 260.46144
L 181.45728 259.56864
L 183.95712 258.67584
L 184.13568 258.49728
L 184.84992 258.31872
L 185.02848 258.14016
L 186.09984 257.9616
L 186.45696 257.60448
L 186.81408 257.42592
L 187.52832 257.24736
L 187.88544 256.89024
L 188.59968 256.71168
L 188.77824 256.53312
L 189.67104 256.35456
L 189.8496 256.176
L 190.92096 255.64032
L 191.6352 255.46176
L 191.81376 255.2832
L 193.06368 254.74752
L 194.13504 254.3904
L 194.3136 254.21184
L 195.2064 254.03328
L 195.38496 253.85472
L 197.70624 252.78336
L 198.42048 252.6048
L 198.59904 252.42624
L 199.84896 251.89056
L 200.92032 251.53344
L 201.09888 251.35488
L 202.70592 250.8192
L 202.88448 250.64064
L 203.2416 250.46208
L 204.67008 250.10496
L 205.0272 249.74784
L 205.38432 249.56928
L 206.45568 249.21216
L 207.88416 248.67648
L 208.06272 248.49792
L 208.95552 248.1408
L 209.4912 247.96224
L 209.66976 247.78368
L 210.20544 247.60512
L 211.09824 247.42656
L 211.2768 247.248
L 211.99104 247.06944
L 212.34816 246.71232
L 212.70528 246.53376
L 213.41952 246.3552
L 213.59808 246.17664
L 215.56224 245.4624
L 215.7408 245.28384
L 217.5264 244.74816
L 217.88352 244.39104
L 218.59776 244.03392
L 219.49056 243.85536
L 219.66912 243.6768
L 220.38336 243.31968
L 221.45472 242.96256
L 224.13312 241.71264
L 225.02592 241.53408
L 225.20448 241.35552
L 225.91872 240.9984
L 226.99008 240.64128
L 228.06144 240.28416
L 228.24 240.1056
L 230.20416 239.2128
L 231.09696 239.03424
L 231.45408 238.67712
L 233.06112 238.49856
L 233.77536 237.78432
L 234.66816 237.4272
L 235.02528 237.24864
L 236.09664 237.07008
L 236.63232 236.5344
L 237.52512 236.17728
L 238.41792 235.82016
L 238.9536 235.6416
L 239.13216 235.46304
L 239.8464 235.28448
L 240.02496 235.10592
L 240.7392 234.92736
L 240.91776 234.7488
L 241.98912 234.57024
L 242.34624 234.21312
L 243.95328 233.49888
L 245.38176 232.9632
L 245.56032 232.78464
L 247.70304 232.0704
L 247.8816 231.89184
L 248.59584 231.71328
L 248.7744 231.53472
L 249.13152 231.35616
L 250.20288 230.99904
L 250.73856 230.82048
L 250.91712 230.64192
L 251.63136 230.46336
L 251.80992 230.2848
L 252.52416 230.10624
L 252.70272 229.92768
L 254.30976 229.74912
L 255.024 229.03488
L 256.09536 228.4992
L 256.8096 228.32064
L 257.16672 227.96352
L 258.5952 227.42784
L 259.84512 226.89216
L 260.73792 226.53504
L 262.70208 225.64224
L 263.59488 225.46368
L 263.952 225.10656
L 264.66624 224.928
L 264.8448 224.74944
L 266.80896 224.0352
L 266.98752 223.85664
L 267.5232 223.67808
L 268.59456 223.49952
L 269.13024 222.96384
L 270.02304 222.78528
L 270.2016 222.60672
L 271.63008 221.89248
L 272.70144 221.71392
L 272.88 221.53536
L 274.12992 220.82112
L 275.20128 220.64256
L 275.37984 220.464
L 276.27264 220.28544
L 276.80832 219.74976
L 277.52256 219.5712
L 277.70112 219.39264
L 278.95104 218.85696
L 279.84384 218.49984
L 281.09376 218.32128
L 281.62944 217.7856
L 282.7008 217.42848
L 282.87936 217.24992
L 283.77216 216.8928
L 284.30784 216.71424
L 284.4864 216.53568
L 285.02208 216.35712
L 286.09344 216.17856
L 286.45056 215.82144
L 289.12896 214.57152
L 290.20032 214.2144
L 290.37888 214.03584
L 291.09312 213.85728
L 291.27168 213.67872
L 293.4144 212.96448
L 293.59296 212.78592
L 294.12864 212.60736
L 294.3072 212.4288
L 295.2 212.07168
L 296.62848 211.536
L 298.23552 210.82176
L 299.664 210.6432
L 300.19968 210.10752
L 301.98528 209.21472
L 303.41376 209.03616
L 303.94944 208.50048
L 304.30656 208.32192
L 305.19936 208.14336
L 305.55648 207.78624
L 306.8064 207.25056
L 307.6992 206.89344
L 308.41344 206.53632
L 309.4848 206.1792
L 310.73472 205.64352
L 312.1632 205.10784
L 312.87744 204.75072
L 313.77024 204.57216
L 314.30592 204.03648
L 314.8416 203.85792
L 316.09152 203.67936
L 316.44864 203.32224
L 317.16288 203.14368
L 317.52 202.78656
L 318.05568 202.608
L 318.23424 202.42944
L 318.94848 202.25088
L 319.12704 202.07232
L 320.01984 201.7152
L 320.55552 201.53664
L 321.80544 201.35808
L 322.34112 200.8224
L 322.8768 200.64384
L 323.05536 200.46528
L 324.6624 199.75104
L 325.73376 199.39392
L 325.91232 199.21536
L 327.3408 198.67968
L 328.05504 198.32256
L 328.76928 198.144
L 328.94784 197.96544
L 330.37632 197.60832
L 330.55488 197.42976
L 333.23328 196.17984
L 333.76896 196.00128
L 333.94752 195.82272
L 335.376 195.4656
L 335.55456 195.28704
L 337.1616 194.5728
L 337.69728 194.39424
L 337.87584 194.21568
L 338.76864 193.85856
L 340.37568 193.14432
L 341.44704 192.7872
L 341.6256 192.60864
L 343.76832 191.8944
L 343.94688 191.71584
L 345.1968 191.18016
L 345.73248 191.0016
L 345.91104 190.82304
L 347.16096 190.46592
L 348.23232 189.93024
L 349.30368 189.57312
L 349.48224 189.39456
L 350.5536 189.03744
L 350.73216 188.85888
L 351.62496 188.50176
L 351.98208 188.3232
L 352.69632 188.14464
L 352.87488 187.96608
L 353.58912 187.78752
L 353.76768 187.60896
L 354.66048 187.25184
L 355.37472 186.89472
L 356.08896 186.71616
L 356.26752 186.5376
L 356.98176 186.35904
L 357.16032 186.18048
L 358.23168 186.00192
L 358.5888 185.6448
L 359.66016 185.10912
L 360.3744 184.93056
L 360.55296 184.752
L 360.91008 184.57344
L 361.98144 184.21632
L 363.40992 183.68064
L 363.58848 183.50208
L 364.48128 183.14496
L 365.37408 182.78784
L 365.90976 182.60928
L 366.08832 182.43072
L 366.98112 182.0736
L 367.33824 181.89504
L 368.58816 181.53792
L 368.76672 181.35936
L 370.37376 180.64512
L 371.088 180.46656
L 371.26656 180.288
L 371.80224 180.10944
L 371.9808 179.93088
L 373.05216 179.75232
L 373.40928 179.3952
L 375.01632 178.68096
L 376.4448 178.14528
L 377.15904 177.78816
L 378.05184 177.6096
L 378.2304 177.43104
L 379.1232 177.25248
L 379.48032 176.89536
L 381.08736 176.35968
L 381.26592 176.18112
L 382.33728 175.824
L 382.6944 175.46688
L 384.30144 174.9312
L 384.48 174.75264
L 385.3728 174.39552
L 385.72992 174.21696
L 386.62272 174.0384
L 386.80128 173.85984
L 387.1584 173.68128
L 387.87264 173.50272
L 388.0512 173.32416
L 389.65824 172.60992
L 390.37248 172.43136
L 390.55104 172.2528
L 391.08672 172.07424
L 391.26528 171.89568
L 391.97952 171.71712
L 392.15808 171.53856
L 393.22944 171.18144
L 393.408 171.00288
L 394.83648 170.4672
L 395.01504 170.28864
L 396.26496 170.11008
L 396.44352 169.93152
L 399.12192 168.6816
L 399.6576 168.50304
L 399.83616 168.32448
L 401.08608 167.7888
L 401.80032 167.61024
L 401.97888 167.43168
L 403.2288 166.896
L 405.19296 166.18176
L 405.37152 166.0032
L 406.26432 165.64608
L 407.15712 165.46752
L 407.33568 165.28896
L 407.87136 165.1104
L 408.04992 164.93184
L 408.94272 164.75328
L 409.29984 164.39616
L 410.19264 164.03904
L 411.264 163.86048
L 411.79968 163.3248
L 412.87104 162.96768
L 413.0496 162.78912
L 413.9424 162.432
L 415.54944 161.71776
L 417.33504 161.18208
L 417.69216 160.82496
L 418.76352 160.46784
L 420.72768 159.57504
L 421.62048 159.39648
L 421.79904 159.21792
L 422.51328 158.8608
L 423.22752 158.68224
L 423.40608 158.50368
L 423.94176 158.32512
L 424.12032 158.14656
L 426.08448 157.43232
L 427.15584 156.89664
L 427.87008 156.71808
L 428.04864 156.53952
L 428.94144 156.1824
L 430.54848 155.46816
L 432.51264 154.75392
L 433.76256 154.21824
L 434.83392 153.86112
L 435.01248 153.68256
L 435.54816 153.504
L 435.72672 153.32544
L 437.1552 152.78976
L 437.86944 152.43264
L 438.58368 152.25408
L 438.76224 152.07552
L 439.65504 151.7184
L 440.19072 151.53984
L 441.08352 151.36128
L 441.44064 151.00416
L 443.4048 150.11136
L 444.2976 149.9328
L 444.47616 149.75424
L 445.90464 149.04
L 446.976 148.68288
L 447.51168 148.50432
L 447.69024 148.32576
L 448.94016 148.1472
L 449.47584 147.61152
L 450.5472 147.2544
L 450.72576 147.07584
L 451.26144 146.89728
L 451.44 146.71872
L 452.3328 146.54016
L 452.51136 146.3616
L 453.2256 146.00448
L 453.93984 145.82592
L 454.1184 145.64736
L 454.47552 145.4688
L 455.18976 145.29024
L 455.36832 145.11168
L 456.26112 144.75456
L 456.61824 144.576
L 457.6896 144.21888
L 458.04672 144.04032
L 458.93952 143.86176
L 459.11808 143.6832
L 460.18944 143.14752
L 461.2608 142.96896
L 461.79648 142.43328
L 462.68928 142.25472
L 462.86784 142.07616
L 463.58208 141.8976
L 463.76064 141.71904
L 465.54624 140.82624
L 466.79616 140.46912
L 466.97472 140.29056
L 468.04608 139.93344
L 468.22464 139.75488
L 468.58176 139.57632
L 469.65312 139.2192
L 470.1888 139.04064
L 470.36736 138.86208
L 471.43872 138.50496
L 472.33152 138.3264
L 472.8672 137.79072
L 474.29568 137.25504
L 475.5456 136.71936
L 476.4384 136.5408
L 476.79552 136.18368
L 477.15264 136.00512
L 478.40256 135.82656
L 478.93824 135.29088
L 480.0096 134.93376
L 481.97376 134.04096
L 483.40224 133.50528
L 483.5808 133.32672
L 485.54496 132.61248
L 485.72352 132.43392
L 487.33056 131.71968
L 488.75904 131.184
L 489.11616 131.00544
L 490.00896 130.82688
L 490.36608 130.46976
L 490.7232 130.2912
L 491.43744 130.11264
L 491.616 129.93408
L 493.04448 129.3984
L 494.2944 128.86272
L 495.00864 128.68416
L 495.1872 128.5056
L 496.43712 127.96992
L 497.15136 127.79136
L 497.32992 127.6128
L 498.04416 127.43424
L 498.22272 127.25568
L 498.57984 127.07712
L 498.57984 127.07712
" style="fill:none;stroke:#0000ff;stroke-linecap:square;"/>
   </g>
   <g id="line2d_2">
    <path clip-path="url(#p21b2f77d53)" d="M 72 305.28
L 72.53568 304.3872
L 72.8928 304.3872
L 73.07136 304.20864
L 73.24992 304.20864
L 73.96416 302.95872
L 74.32128 302.6016
L 74.85696 301.7088
L 75.03552 301.53024
L 75.21408 301.53024
L 75.5712 300.99456
L 75.74976 300.99456
L 76.10688 300.63744
L 76.464 299.74464
L 76.64256 299.56608
L 77.17824 298.67328
L 77.3568 298.67328
L 77.71392 298.1376
L 77.89248 298.1376
L 78.07104 297.95904
L 78.42816 297.95904
L 78.78528 297.60192
L 78.96384 297.2448
L 79.1424 297.2448
L 79.32096 297.06624
L 79.49952 297.06624
L 79.85664 296.70912
L 80.0352 296.70912
L 80.21376 296.17344
L 80.39232 296.17344
L 80.74944 295.63776
L 80.928 295.4592
L 81.10656 294.92352
L 81.28512 294.92352
L 81.8208 294.03072
L 81.99936 294.03072
L 82.35648 293.49504
L 82.53504 293.31648
L 82.7136 292.95936
L 82.89216 292.95936
L 83.24928 292.42368
L 83.42784 292.24512
L 83.6064 292.24512
L 83.78496 292.06656
L 83.96352 291.35232
L 84.14208 291.35232
L 84.4992 290.9952
L 84.85632 290.45952
L 85.03488 290.28096
L 85.21344 289.92384
L 85.392 289.92384
L 85.57056 289.56672
L 85.92768 288.3168
L 86.10624 288.13824
L 86.2848 288.13824
L 86.64192 287.60256
L 86.99904 287.24544
L 87.1776 287.24544
L 87.89184 285.99552
L 88.0704 285.99552
L 88.24896 285.81696
L 88.78464 284.92416
L 88.9632 284.92416
L 89.49888 284.03136
L 89.67744 283.8528
L 89.856 283.49568
L 90.03456 283.49568
L 90.39168 283.13856
L 90.57024 283.13856
L 91.10592 282.24576
L 91.28448 282.24576
L 91.46304 281.88864
L 91.6416 281.88864
L 91.99872 281.53152
L 92.17728 281.53152
L 92.35584 281.1744
L 92.5344 281.1744
L 92.89152 280.81728
L 93.24864 280.81728
L 93.4272 280.63872
L 93.60576 280.63872
L 93.96288 280.10304
L 94.14144 279.92448
L 94.32 279.92448
L 94.49856 279.74592
L 94.67712 279.74592
L 94.85568 279.56736
L 95.03424 279.56736
L 95.2128 279.3888
L 95.39136 279.3888
L 95.74848 279.03168
L 95.92704 279.03168
L 96.46272 278.496
L 96.64128 278.496
L 96.81984 278.31744
L 97.17696 277.78176
L 97.35552 277.78176
L 97.53408 277.42464
L 97.71264 277.42464
L 97.8912 277.06752
L 98.06976 277.06752
L 98.42688 276.53184
L 98.60544 276.53184
L 98.96256 276.17472
L 99.14112 276.17472
L 99.49824 275.63904
L 100.03392 275.10336
L 100.21248 275.10336
L 100.39104 274.38912
L 100.5696 274.38912
L 100.74816 274.21056
L 101.28384 272.78208
L 101.4624 272.78208
L 101.64096 272.60352
L 101.81952 272.60352
L 101.99808 272.42496
L 102.17664 272.42496
L 102.53376 271.88928
L 102.71232 271.88928
L 103.248 271.3536
L 103.60512 271.3536
L 103.78368 271.17504
L 103.96224 270.81792
L 104.1408 270.81792
L 104.49792 270.28224
L 104.67648 270.28224
L 105.0336 269.74656
L 105.21216 269.74656
L 105.56928 269.38944
L 105.74784 269.38944
L 105.9264 269.21088
L 106.28352 269.21088
L 106.46208 269.03232
L 107.17632 267.7824
L 107.35488 267.7824
L 107.712 267.42528
L 107.89056 267.42528
L 108.06912 266.8896
L 108.24768 266.8896
L 108.42624 266.71104
L 108.6048 266.71104
L 108.78336 266.53248
L 109.14048 265.9968
L 109.31904 265.9968
L 109.4976 265.63968
L 109.85472 264.56832
L 110.03328 264.56832
L 110.3904 264.2112
L 110.56896 264.2112
L 110.74752 264.03264
L 110.92608 263.67552
L 111.10464 263.67552
L 111.46176 263.13984
L 111.64032 263.13984
L 111.81888 262.60416
L 111.99744 262.60416
L 112.53312 261.5328
L 112.71168 261.5328
L 112.89024 261.35424
L 113.0688 260.99712
L 113.24736 260.99712
L 113.42592 260.46144
L 113.60448 260.46144
L 113.78304 260.28288
L 113.9616 260.28288
L 114.14016 260.10432
L 114.31872 260.10432
L 114.49728 259.92576
L 114.8544 259.39008
L 115.03296 259.21152
L 115.21152 259.21152
L 115.39008 258.8544
L 115.56864 258.8544
L 115.7472 258.67584
L 115.92576 258.67584
L 116.46144 257.78304
L 116.81856 257.42592
L 116.99712 257.42592
L 117.17568 257.0688
L 117.35424 257.0688
L 117.5328 256.89024
L 117.88992 256.35456
L 118.06848 256.176
L 118.24704 256.176
L 118.78272 255.10464
L 118.96128 255.10464
L 119.13984 254.74752
L 119.3184 254.74752
L 119.49696 254.3904
L 119.67552 254.3904
L 119.85408 254.03328
L 120.03264 254.03328
L 120.38976 253.4976
L 120.56832 253.4976
L 120.74688 253.31904
L 121.46112 252.06912
L 121.63968 252.06912
L 121.9968 251.53344
L 122.17536 251.35488
L 122.35392 250.99776
L 122.53248 250.99776
L 122.8896 250.64064
L 123.06816 250.64064
L 123.60384 249.21216
L 124.13952 248.67648
L 124.31808 248.67648
L 124.6752 248.31936
L 124.85376 247.96224
L 125.03232 247.96224
L 125.21088 247.78368
L 125.38944 247.78368
L 125.568 247.60512
L 125.74656 247.60512
L 125.92512 247.248
L 126.10368 247.248
L 126.4608 246.71232
L 127.3536 245.81952
L 127.53216 245.81952
L 127.88928 245.28384
L 128.06784 245.10528
L 128.2464 245.10528
L 128.60352 244.5696
L 128.78208 244.39104
L 128.96064 244.39104
L 129.49632 243.85536
L 129.67488 243.85536
L 130.032 243.31968
L 130.21056 243.31968
L 130.56768 242.96256
L 130.74624 242.60544
L 130.9248 242.60544
L 131.10336 242.42688
L 131.28192 242.42688
L 131.46048 242.24832
L 131.63904 241.8912
L 131.8176 241.8912
L 131.99616 241.71264
L 132.35328 241.17696
L 132.53184 241.17696
L 132.7104 240.9984
L 132.88896 240.9984
L 133.06752 240.64128
L 133.42464 240.64128
L 134.13888 239.92704
L 134.31744 239.92704
L 134.67456 239.39136
L 135.03168 239.03424
L 135.56736 238.14144
L 136.10304 237.60576
L 136.46016 237.07008
L 136.63872 236.89152
L 136.81728 236.89152
L 136.99584 236.17728
L 137.71008 235.46304
L 137.88864 235.46304
L 138.0672 235.10592
L 138.24576 235.10592
L 138.42432 234.7488
L 138.60288 234.7488
L 138.78144 234.39168
L 138.96 234.39168
L 139.13856 234.03456
L 139.49568 234.03456
L 139.67424 233.856
L 140.20992 232.9632
L 140.56704 232.60608
L 140.7456 232.24896
L 140.92416 232.24896
L 141.10272 231.71328
L 141.28128 231.53472
L 141.6384 230.64192
L 141.81696 230.64192
L 141.99552 230.2848
L 142.17408 230.2848
L 142.35264 230.10624
L 142.5312 230.10624
L 142.70976 229.57056
L 142.88832 229.392
L 143.06688 229.392
L 143.24544 229.03488
L 143.424 229.03488
L 143.60256 228.85632
L 143.78112 228.85632
L 144.13824 228.4992
L 144.49536 228.4992
L 144.67392 228.14208
L 144.85248 228.14208
L 145.2096 227.6064
L 145.56672 227.24928
L 145.74528 227.24928
L 145.92384 227.07072
L 146.1024 227.07072
L 146.28096 226.7136
L 146.45952 226.7136
L 146.9952 225.8208
L 147.17376 225.8208
L 147.35232 225.46368
L 147.70944 225.46368
L 147.888 225.28512
L 148.06656 225.28512
L 148.24512 224.928
L 148.42368 224.928
L 148.7808 224.57088
L 149.13792 224.57088
L 149.49504 224.21376
L 149.6736 223.67808
L 149.85216 223.67808
L 150.03072 223.32096
L 150.20928 223.32096
L 150.5664 222.78528
L 150.74496 222.78528
L 150.92352 222.42816
L 151.10208 222.42816
L 151.28064 222.07104
L 151.4592 222.07104
L 151.81632 221.71392
L 151.99488 221.71392
L 152.17344 221.53536
L 152.352 221.53536
L 152.88768 220.64256
L 153.06624 220.464
L 153.2448 220.464
L 153.42336 220.28544
L 153.78048 219.74976
L 153.95904 219.74976
L 154.31616 219.39264
L 154.67328 219.39264
L 155.56608 218.49984
L 155.9232 218.49984
L 156.45888 217.60704
L 156.63744 217.60704
L 156.99456 217.24992
L 157.17312 217.24992
L 157.35168 217.07136
L 157.53024 217.07136
L 157.88736 216.53568
L 158.06592 216.53568
L 158.24448 215.82144
L 158.6016 215.46432
L 158.78016 215.46432
L 158.95872 215.28576
L 159.4944 214.39296
L 159.67296 214.39296
L 160.20864 213.3216
L 160.3872 213.3216
L 160.56576 213.14304
L 160.74432 212.78592
L 160.92288 212.78592
L 161.10144 212.25024
L 161.28 212.07168
L 161.99424 210.82176
L 162.35136 210.46464
L 162.52992 210.46464
L 162.70848 210.28608
L 162.88704 210.28608
L 163.0656 209.92896
L 163.24416 209.92896
L 163.42272 209.7504
L 163.60128 209.7504
L 163.77984 209.57184
L 163.9584 209.57184
L 164.49408 209.03616
L 164.67264 209.03616
L 164.8512 208.67904
L 165.02976 208.67904
L 165.38688 207.9648
L 165.56544 207.9648
L 165.744 207.78624
L 165.92256 207.78624
L 166.10112 207.60768
L 166.27968 207.60768
L 166.45824 207.25056
L 166.6368 207.25056
L 166.81536 206.89344
L 166.99392 206.89344
L 167.17248 206.71488
L 167.35104 206.71488
L 167.5296 206.35776
L 167.70816 206.35776
L 167.88672 205.64352
L 168.06528 205.64352
L 168.24384 205.46496
L 168.4224 205.46496
L 168.60096 205.10784
L 168.77952 205.10784
L 169.13664 204.75072
L 169.49376 204.75072
L 169.67232 204.21504
L 169.85088 204.21504
L 170.38656 203.32224
L 170.56512 203.14368
L 170.92224 203.14368
L 171.1008 202.608
L 171.27936 202.608
L 171.63648 202.07232
L 171.81504 202.07232
L 171.9936 201.89376
L 172.35072 201.35808
L 172.70784 201.00096
L 172.8864 201.00096
L 173.24352 200.46528
L 173.42208 200.46528
L 173.60064 200.10816
L 173.7792 200.10816
L 174.13632 199.75104
L 174.49344 198.85824
L 174.672 198.67968
L 174.85056 198.32256
L 175.02912 198.32256
L 175.38624 197.42976
L 175.5648 197.2512
L 175.74336 196.89408
L 175.92192 196.89408
L 176.10048 196.53696
L 176.27904 196.53696
L 176.81472 196.00128
L 177.17184 195.28704
L 177.3504 194.5728
L 177.70752 194.21568
L 177.88608 193.85856
L 178.2432 193.85856
L 178.60032 193.32288
L 178.95744 192.96576
L 179.136 192.96576
L 179.49312 192.43008
L 179.67168 192.43008
L 180.0288 191.8944
L 180.20736 191.8944
L 180.74304 191.35872
L 180.9216 191.35872
L 181.10016 191.18016
L 181.27872 191.18016
L 181.8144 190.64448
L 181.99296 190.64448
L 182.17152 190.28736
L 182.35008 190.28736
L 183.06432 189.03744
L 183.24288 189.03744
L 183.42144 188.85888
L 183.6 188.50176
L 183.77856 188.50176
L 184.31424 187.60896
L 184.4928 187.60896
L 184.67136 187.4304
L 184.84992 187.4304
L 185.3856 186.5376
L 185.56416 186.5376
L 185.74272 186.18048
L 185.92128 186.18048
L 186.09984 185.82336
L 186.2784 185.82336
L 186.63552 185.46624
L 186.81408 185.46624
L 186.99264 185.28768
L 187.1712 185.28768
L 187.52832 184.93056
L 187.70688 184.93056
L 188.064 184.57344
L 188.59968 184.57344
L 188.9568 183.8592
L 189.13536 183.8592
L 189.31392 183.50208
L 189.49248 183.50208
L 189.67104 182.9664
L 189.8496 182.9664
L 190.20672 182.60928
L 190.38528 182.60928
L 190.7424 182.25216
L 191.09952 181.35936
L 191.45664 181.35936
L 191.6352 181.00224
L 191.81376 181.00224
L 192.17088 180.64512
L 192.528 180.64512
L 192.70656 180.288
L 192.88512 180.288
L 193.06368 180.10944
L 193.24224 180.10944
L 193.4208 179.93088
L 193.59936 179.57376
L 193.77792 179.57376
L 193.95648 179.21664
L 194.13504 179.21664
L 194.3136 178.85952
L 194.49216 178.85952
L 195.02784 177.96672
L 195.2064 177.96672
L 195.56352 177.6096
L 195.74208 177.6096
L 196.0992 177.07392
L 196.27776 176.89536
L 196.45632 176.89536
L 196.63488 176.53824
L 196.81344 176.53824
L 197.17056 176.18112
L 197.52768 175.46688
L 197.70624 175.46688
L 197.8848 175.28832
L 198.24192 174.75264
L 198.42048 174.57408
L 198.59904 174.57408
L 199.13472 173.68128
L 199.49184 173.68128
L 199.84896 172.78848
L 200.02752 172.43136
L 200.20608 172.43136
L 200.38464 172.2528
L 200.5632 171.71712
L 200.74176 171.71712
L 200.92032 171.53856
L 201.09888 171.53856
L 201.99168 169.93152
L 202.3488 169.5744
L 202.52736 169.5744
L 202.70592 169.39584
L 202.88448 169.39584
L 203.06304 169.21728
L 203.2416 169.21728
L 203.42016 168.86016
L 203.59872 168.86016
L 203.77728 168.6816
L 204.1344 168.6816
L 204.31296 168.50304
L 204.49152 168.14592
L 204.67008 168.14592
L 204.84864 167.96736
L 205.0272 167.96736
L 205.38432 167.25312
L 205.56288 167.25312
L 205.92 166.896
L 206.45568 165.82464
L 206.63424 165.82464
L 206.8128 165.28896
L 206.99136 165.28896
L 207.34848 164.93184
L 207.52704 164.57472
L 207.88416 164.57472
L 208.06272 164.39616
L 208.41984 163.3248
L 208.5984 163.3248
L 208.95552 162.432
L 209.13408 162.432
L 209.31264 162.07488
L 209.4912 162.07488
L 209.66976 161.89632
L 209.84832 161.89632
L 210.20544 161.36064
L 210.384 161.36064
L 210.56256 161.00352
L 210.74112 161.00352
L 210.91968 160.28928
L 211.09824 160.28928
L 211.2768 159.93216
L 211.45536 159.93216
L 211.81248 159.57504
L 211.99104 159.57504
L 212.52672 158.68224
L 212.70528 158.50368
L 213.0624 158.50368
L 213.24096 158.32512
L 213.59808 157.78944
L 213.77664 157.78944
L 213.9552 157.61088
L 214.13376 157.61088
L 214.31232 157.43232
L 214.49088 157.43232
L 214.848 156.71808
L 215.02656 156.71808
L 215.38368 156.1824
L 215.56224 156.00384
L 215.7408 156.00384
L 217.16928 153.32544
L 217.34784 153.32544
L 217.70496 152.78976
L 217.88352 152.78976
L 218.06208 152.6112
L 218.24064 152.6112
L 218.4192 152.43264
L 219.312 150.8256
L 219.49056 150.64704
L 219.66912 150.28992
L 219.84768 150.28992
L 220.02624 150.11136
L 220.2048 149.75424
L 220.38336 149.75424
L 220.56192 149.57568
L 221.0976 148.68288
L 221.27616 148.68288
L 221.45472 148.50432
L 221.81184 148.50432
L 222.34752 147.61152
L 222.52608 147.61152
L 223.59744 145.64736
L 223.776 145.4688
L 224.13312 144.93312
L 224.31168 144.75456
L 224.6688 143.86176
L 225.20448 143.32608
L 225.38304 143.32608
L 225.5616 143.14752
L 225.74016 143.14752
L 225.91872 142.96896
L 226.27584 142.96896
L 226.63296 142.61184
L 226.81152 142.61184
L 226.99008 142.43328
L 227.16864 142.43328
L 227.3472 142.07616
L 227.52576 142.07616
L 227.70432 141.71904
L 228.06144 141.71904
L 228.59712 141.18336
L 228.77568 141.18336
L 228.95424 141.0048
L 229.1328 141.0048
L 229.31136 140.46912
L 229.48992 140.46912
L 229.66848 139.93344
L 229.84704 139.93344
L 230.56128 138.68352
L 230.73984 138.68352
L 230.9184 138.50496
L 231.09696 138.50496
L 231.27552 138.14784
L 231.45408 138.14784
L 231.98976 137.25504
L 232.34688 136.89792
L 232.52544 136.89792
L 233.41824 136.00512
L 233.5968 136.00512
L 233.95392 135.648
L 234.13248 135.648
L 234.31104 135.11232
L 234.66816 134.7552
L 234.84672 134.7552
L 235.20384 133.8624
L 235.3824 133.8624
L 235.91808 132.79104
L 236.09664 132.79104
L 236.2752 132.61248
L 236.45376 132.61248
L 236.98944 132.0768
L 237.168 132.0768
L 237.34656 131.89824
L 237.52512 131.89824
L 237.88224 131.184
L 238.0608 131.184
L 238.23936 130.82688
L 238.41792 130.82688
L 238.59648 130.46976
L 238.77504 130.46976
L 238.9536 129.93408
L 239.31072 129.57696
L 239.66784 129.57696
L 239.8464 129.21984
L 240.02496 129.21984
L 240.20352 128.86272
L 240.56064 128.86272
L 240.7392 128.68416
L 240.91776 128.68416
L 241.09632 128.32704
L 241.45344 128.32704
L 241.98912 127.79136
L 242.16768 127.79136
L 242.34624 127.6128
L 242.5248 127.25568
L 242.88192 127.25568
L 243.06048 127.07712
L 243.4176 127.07712
L 243.59616 126.89856
L 243.77472 126.89856
L 243.95328 126.72
L 243.95328 126.72
" style="fill:none;stroke:#008000;stroke-linecap:square;"/>
   </g>
   <g id="line2d_3">
    <path clip-path="url(#p21b2f77d53)" d="M 72 305.28
L 72.17856 305.10144
L 72.71424 304.20864
L 73.07136 303.85152
L 73.24992 303.85152
L 73.42848 303.31584
L 73.60704 303.31584
L 74.14272 302.78016
L 74.32128 302.78016
L 74.6784 302.42304
L 74.85696 302.42304
L 75.21408 302.06592
L 75.39264 302.06592
L 75.5712 301.88736
L 75.74976 301.88736
L 76.10688 301.35168
L 76.28544 301.17312
L 76.464 301.17312
L 76.64256 300.99456
L 76.82112 300.63744
L 76.99968 300.63744
L 78.07104 298.67328
L 78.2496 298.67328
L 78.78528 298.1376
L 78.96384 298.1376
L 79.49952 296.70912
L 79.67808 296.53056
L 79.85664 296.53056
L 80.0352 296.352
L 80.39232 296.352
L 80.57088 296.17344
L 80.928 295.28064
L 81.10656 295.28064
L 81.46368 294.92352
L 81.64224 294.92352
L 81.8208 294.74496
L 81.99936 294.74496
L 82.17792 294.5664
L 82.35648 294.20928
L 82.53504 294.20928
L 82.7136 294.03072
L 82.89216 294.03072
L 83.07072 293.6736
L 83.42784 293.6736
L 83.6064 293.49504
L 83.96352 292.7808
L 84.14208 292.7808
L 84.4992 292.06656
L 84.67776 292.06656
L 84.85632 291.888
L 85.03488 291.53088
L 85.21344 291.53088
L 85.57056 291.17376
L 85.74912 291.17376
L 85.92768 290.81664
L 86.10624 290.81664
L 86.2848 290.28096
L 86.46336 290.28096
L 86.99904 289.74528
L 87.1776 289.74528
L 87.53472 289.38816
L 87.71328 289.38816
L 88.0704 289.03104
L 88.24896 288.67392
L 88.42752 288.67392
L 88.78464 288.13824
L 88.9632 288.13824
L 89.14176 287.78112
L 89.32032 287.78112
L 89.67744 287.24544
L 89.856 287.24544
L 90.39168 286.70976
L 90.57024 286.70976
L 90.7488 286.5312
L 90.92736 286.5312
L 91.10592 286.17408
L 91.28448 286.17408
L 91.6416 285.28128
L 91.82016 285.28128
L 92.17728 284.7456
L 92.35584 284.7456
L 92.71296 284.38848
L 92.89152 284.38848
L 93.07008 284.03136
L 93.24864 284.03136
L 93.60576 283.49568
L 93.96288 283.13856
L 94.14144 283.13856
L 94.32 282.96
L 94.49856 282.96
L 94.67712 282.78144
L 95.03424 281.53152
L 95.2128 281.53152
L 95.92704 280.81728
L 96.1056 280.81728
L 96.28416 280.63872
L 96.46272 280.2816
L 96.64128 280.2816
L 96.81984 280.10304
L 97.35552 279.21024
L 97.71264 278.85312
L 97.8912 278.85312
L 98.06976 278.496
L 98.24832 278.496
L 98.60544 277.96032
L 98.784 277.96032
L 98.96256 277.78176
L 99.31968 276.7104
L 99.49824 276.7104
L 99.6768 276.53184
L 99.85536 276.53184
L 100.21248 276.17472
L 100.74816 275.28192
L 100.92672 275.28192
L 101.10528 274.9248
L 101.4624 274.9248
L 101.64096 274.56768
L 101.81952 274.56768
L 102.53376 273.31776
L 102.71232 273.31776
L 103.248 272.42496
L 103.42656 272.42496
L 103.78368 271.88928
L 103.96224 271.88928
L 104.1408 271.53216
L 104.31936 271.53216
L 104.49792 271.17504
L 104.67648 271.17504
L 105.0336 270.28224
L 105.21216 270.10368
L 105.39072 269.74656
L 105.56928 269.74656
L 105.74784 269.38944
L 105.9264 269.38944
L 106.10496 269.21088
L 106.28352 269.21088
L 106.64064 268.85376
L 106.99776 268.85376
L 107.35488 268.49664
L 107.53344 268.49664
L 107.712 268.31808
L 107.89056 267.96096
L 108.24768 267.96096
L 108.42624 267.60384
L 108.6048 267.60384
L 108.78336 267.42528
L 108.96192 267.06816
L 109.14048 267.06816
L 109.4976 266.71104
L 109.67616 266.71104
L 109.85472 266.35392
L 110.03328 266.35392
L 110.56896 265.81824
L 110.74752 265.81824
L 110.92608 265.63968
L 111.10464 265.63968
L 111.2832 265.46112
L 111.64032 264.74688
L 111.81888 264.74688
L 112.53312 263.49696
L 112.71168 263.49696
L 113.0688 262.78272
L 113.24736 262.78272
L 113.42592 262.4256
L 113.60448 262.4256
L 114.14016 261.88992
L 114.31872 261.88992
L 114.67584 261.5328
L 114.8544 261.5328
L 115.03296 261.35424
L 115.21152 261.35424
L 115.56864 260.81856
L 115.7472 260.64
L 115.92576 260.64
L 116.28288 260.10432
L 116.46144 260.10432
L 116.64 259.7472
L 116.81856 259.7472
L 116.99712 259.39008
L 117.17568 259.39008
L 117.71136 258.49728
L 117.88992 258.49728
L 118.06848 258.31872
L 118.24704 258.31872
L 118.4256 258.14016
L 118.78272 257.60448
L 118.96128 257.60448
L 119.3184 257.24736
L 119.67552 257.24736
L 120.2112 256.71168
L 120.38976 256.71168
L 120.92544 255.81888
L 121.104 255.81888
L 121.28256 255.46176
L 121.46112 255.46176
L 121.63968 255.2832
L 121.81824 255.2832
L 121.9968 255.10464
L 122.17536 255.10464
L 122.8896 254.3904
L 123.24672 253.85472
L 123.60384 253.85472
L 123.7824 253.4976
L 123.96096 253.4976
L 124.49664 252.96192
L 124.6752 252.6048
L 124.85376 252.6048
L 125.38944 252.06912
L 125.568 251.712
L 125.74656 251.712
L 125.92512 251.53344
L 126.10368 251.53344
L 126.4608 250.99776
L 126.63936 250.99776
L 127.17504 250.10496
L 127.53216 249.74784
L 127.71072 249.39072
L 127.88928 249.39072
L 128.06784 249.0336
L 128.2464 249.0336
L 128.60352 248.67648
L 128.96064 248.67648
L 129.49632 248.1408
L 129.67488 248.1408
L 130.032 247.60512
L 130.21056 247.60512
L 130.74624 247.06944
L 130.9248 247.06944
L 131.28192 246.71232
L 131.46048 246.71232
L 131.63904 246.53376
L 131.8176 246.53376
L 131.99616 246.3552
L 132.17472 246.3552
L 132.35328 246.17664
L 132.53184 245.81952
L 132.7104 245.81952
L 132.88896 245.64096
L 133.24608 245.10528
L 133.42464 244.92672
L 133.6032 244.92672
L 133.96032 244.21248
L 134.13888 244.21248
L 134.31744 243.85536
L 134.496 243.85536
L 134.67456 243.49824
L 134.85312 243.49824
L 135.03168 243.31968
L 135.21024 242.96256
L 135.3888 242.96256
L 135.74592 242.60544
L 135.92448 242.06976
L 136.10304 241.8912
L 136.2816 241.53408
L 136.63872 241.53408
L 136.81728 241.17696
L 136.99584 241.17696
L 137.53152 239.92704
L 137.88864 239.03424
L 138.0672 238.67712
L 138.24576 238.67712
L 138.60288 238.32
L 138.78144 238.32
L 138.96 237.78432
L 139.13856 237.78432
L 139.31712 237.24864
L 139.49568 237.24864
L 139.67424 236.89152
L 139.8528 236.89152
L 140.20992 236.17728
L 140.38848 236.17728
L 140.92416 235.10592
L 141.10272 235.10592
L 141.45984 234.21312
L 141.6384 234.03456
L 141.81696 234.03456
L 142.35264 233.14176
L 142.5312 233.14176
L 143.06688 232.60608
L 143.24544 232.60608
L 143.95968 231.35616
L 144.13824 231.35616
L 144.3168 231.1776
L 144.49536 231.1776
L 144.67392 230.82048
L 144.85248 230.82048
L 145.56672 230.10624
L 145.74528 230.10624
L 146.1024 229.74912
L 146.28096 229.74912
L 146.45952 229.57056
L 146.63808 229.57056
L 146.81664 229.392
L 146.9952 229.03488
L 147.17376 229.03488
L 147.35232 228.85632
L 147.53088 228.85632
L 147.70944 228.67776
L 147.888 228.67776
L 148.06656 228.32064
L 148.24512 228.32064
L 148.7808 227.78496
L 148.95936 227.42784
L 149.13792 227.42784
L 149.31648 227.07072
L 149.49504 227.07072
L 149.6736 226.89216
L 149.85216 226.53504
L 150.03072 226.53504
L 150.20928 226.17792
L 150.5664 226.17792
L 151.10208 225.28512
L 151.4592 224.928
L 151.63776 224.928
L 151.99488 224.57088
L 152.17344 224.57088
L 152.53056 224.0352
L 152.70912 223.85664
L 152.88768 223.49952
L 153.06624 223.49952
L 154.1376 222.42816
L 154.31616 222.42816
L 154.67328 222.07104
L 154.85184 222.07104
L 155.0304 221.89248
L 155.20896 221.89248
L 155.38752 221.17824
L 155.56608 221.17824
L 155.74464 220.464
L 155.9232 220.464
L 156.10176 220.28544
L 156.28032 220.28544
L 156.45888 220.10688
L 156.63744 220.10688
L 156.99456 219.03552
L 157.17312 219.03552
L 157.35168 218.6784
L 157.53024 218.6784
L 158.06592 217.7856
L 158.24448 217.60704
L 158.42304 217.24992
L 158.6016 217.24992
L 158.78016 217.07136
L 158.95872 217.07136
L 159.13728 216.8928
L 159.4944 216.8928
L 159.85152 216.53568
L 160.03008 216.17856
L 160.20864 216.17856
L 160.3872 216
L 160.74432 215.46432
L 161.28 214.92864
L 161.81568 214.03584
L 162.1728 213.67872
L 162.35136 213.67872
L 162.52992 213.50016
L 162.70848 213.50016
L 162.88704 213.3216
L 163.0656 212.07168
L 163.24416 212.07168
L 163.77984 210.46464
L 164.31552 209.92896
L 164.67264 209.92896
L 164.8512 209.57184
L 165.02976 209.57184
L 165.20832 209.39328
L 165.38688 208.8576
L 165.744 208.50048
L 165.92256 208.50048
L 166.10112 208.32192
L 166.45824 207.42912
L 166.6368 207.42912
L 167.17248 206.53632
L 167.35104 206.35776
L 167.5296 206.00064
L 167.70816 206.00064
L 168.24384 205.10784
L 168.60096 204.75072
L 168.77952 204.75072
L 168.95808 204.57216
L 169.13664 204.57216
L 169.3152 204.3936
L 169.49376 204.03648
L 169.67232 204.03648
L 169.85088 203.85792
L 170.02944 203.85792
L 170.208 203.67936
L 170.74368 202.78656
L 171.1008 202.42944
L 171.27936 202.42944
L 171.9936 201.7152
L 172.17216 201.7152
L 172.52928 201.35808
L 172.70784 201.35808
L 172.8864 201.00096
L 173.06496 201.00096
L 173.24352 200.64384
L 173.42208 200.64384
L 173.7792 200.28672
L 174.85056 198.32256
L 175.02912 198.32256
L 175.5648 197.78688
L 175.92192 197.78688
L 176.27904 197.2512
L 176.81472 196.71552
L 176.99328 196.17984
L 177.17184 196.17984
L 177.52896 195.64416
L 177.70752 195.4656
L 178.06464 194.92992
L 178.2432 194.92992
L 178.42176 194.5728
L 178.60032 194.5728
L 178.77888 194.39424
L 178.95744 194.39424
L 179.31456 194.03712
L 179.49312 194.03712
L 179.85024 193.68
L 180.0288 193.68
L 180.56448 193.14432
L 180.74304 193.14432
L 180.9216 192.96576
L 181.10016 192.96576
L 181.27872 192.60864
L 181.45728 192.60864
L 181.63584 192.25152
L 181.8144 191.35872
L 181.99296 191.35872
L 182.17152 191.18016
L 182.35008 191.18016
L 182.52864 191.0016
L 182.7072 190.64448
L 182.88576 190.64448
L 183.06432 190.28736
L 183.24288 190.28736
L 183.77856 189.39456
L 183.95712 189.39456
L 184.4928 188.14464
L 184.67136 187.60896
L 184.84992 187.4304
L 185.02848 187.07328
L 185.3856 187.07328
L 185.74272 186.18048
L 185.92128 186.00192
L 186.09984 185.46624
L 186.2784 185.46624
L 186.63552 184.93056
L 186.99264 184.57344
L 187.1712 184.21632
L 187.34976 184.21632
L 187.52832 184.03776
L 187.88544 183.50208
L 188.064 183.50208
L 188.24256 183.14496
L 188.42112 183.14496
L 188.59968 182.9664
L 188.77824 182.60928
L 188.9568 182.60928
L 189.13536 182.25216
L 189.31392 182.25216
L 190.02816 181.53792
L 190.38528 181.00224
L 190.56384 180.82368
L 190.7424 180.82368
L 190.92096 180.64512
L 191.45664 179.3952
L 191.6352 178.68096
L 191.81376 178.68096
L 191.99232 178.5024
L 192.17088 177.96672
L 192.34944 177.96672
L 192.528 177.43104
L 192.70656 177.25248
L 192.88512 177.25248
L 193.4208 176.7168
L 193.59936 176.35968
L 193.77792 176.35968
L 194.13504 175.824
L 194.3136 175.64544
L 194.49216 175.64544
L 194.84928 174.75264
L 195.02784 174.75264
L 195.2064 174.39552
L 195.38496 174.39552
L 195.56352 174.21696
L 195.74208 174.21696
L 195.92064 174.0384
L 196.27776 173.50272
L 196.45632 173.32416
L 196.63488 173.32416
L 196.81344 172.78848
L 197.17056 172.78848
L 197.8848 172.07424
L 198.24192 171.53856
L 198.59904 171.53856
L 198.7776 171.18144
L 198.95616 171.18144
L 199.13472 171.00288
L 199.31328 171.00288
L 199.49184 170.82432
L 199.84896 170.28864
L 200.02752 170.28864
L 200.20608 170.11008
L 200.5632 169.5744
L 200.74176 169.39584
L 200.92032 169.39584
L 201.09888 169.21728
L 201.456 169.21728
L 201.63456 168.86016
L 201.81312 168.86016
L 202.17024 168.32448
L 202.3488 168.14592
L 202.52736 168.14592
L 202.70592 167.7888
L 202.88448 167.7888
L 203.06304 167.61024
L 203.2416 167.61024
L 203.59872 167.25312
L 203.77728 167.25312
L 203.95584 167.07456
L 204.31296 166.53888
L 204.67008 166.18176
L 205.20576 165.28896
L 205.38432 165.28896
L 205.56288 165.1104
L 205.74144 165.1104
L 206.09856 164.75328
L 206.27712 164.75328
L 206.63424 164.39616
L 206.8128 164.39616
L 206.99136 164.2176
L 207.34848 163.68192
L 207.52704 163.68192
L 207.7056 163.3248
L 207.88416 163.3248
L 208.06272 163.14624
L 208.24128 163.14624
L 208.41984 162.78912
L 208.5984 162.78912
L 208.77696 162.61056
L 208.95552 162.61056
L 209.31264 162.07488
L 209.4912 161.89632
L 209.84832 160.82496
L 210.20544 160.82496
L 210.74112 160.28928
L 210.91968 160.28928
L 211.2768 159.7536
L 211.45536 159.57504
L 211.63392 159.57504
L 211.99104 159.21792
L 212.1696 159.21792
L 212.34816 159.03936
L 212.52672 159.03936
L 212.70528 158.68224
L 212.88384 158.68224
L 213.0624 158.50368
L 213.24096 158.50368
L 213.41952 158.32512
L 213.59808 158.32512
L 213.77664 158.14656
L 213.9552 158.14656
L 214.13376 157.968
L 214.31232 157.968
L 215.20512 156.1824
L 215.38368 156.1824
L 215.7408 155.64672
L 215.91936 155.64672
L 216.27648 155.11104
L 216.45504 155.11104
L 216.6336 154.75392
L 216.81216 154.75392
L 216.99072 154.57536
L 217.16928 154.21824
L 217.34784 154.21824
L 217.5264 154.03968
L 217.70496 154.03968
L 217.88352 153.86112
L 218.06208 153.504
L 218.24064 153.504
L 219.13344 152.6112
L 219.312 152.6112
L 219.49056 152.25408
L 219.84768 152.25408
L 220.2048 151.89696
L 220.38336 151.89696
L 220.56192 151.53984
L 220.74048 151.53984
L 220.91904 151.36128
L 221.0976 151.36128
L 221.45472 150.8256
L 221.63328 150.64704
L 221.9904 150.11136
L 222.16896 149.9328
L 222.34752 149.9328
L 222.52608 149.57568
L 222.70464 149.57568
L 223.06176 148.86144
L 223.24032 148.86144
L 223.41888 148.68288
L 223.59744 148.68288
L 223.95456 148.32576
L 224.13312 147.96864
L 224.31168 147.96864
L 224.6688 147.61152
L 224.84736 147.61152
L 225.38304 147.07584
L 225.5616 147.07584
L 225.91872 146.71872
L 226.09728 146.71872
L 226.27584 146.3616
L 226.4544 146.3616
L 226.63296 145.82592
L 226.81152 145.82592
L 227.3472 144.93312
L 227.70432 144.576
L 227.88288 144.576
L 228.24 144.04032
L 228.41856 143.86176
L 228.77568 143.14752
L 228.95424 143.14752
L 229.1328 142.96896
L 229.31136 142.96896
L 229.48992 142.61184
L 229.66848 142.61184
L 229.84704 142.43328
L 230.0256 142.43328
L 230.56128 141.8976
L 230.73984 141.54048
L 230.9184 141.54048
L 231.27552 140.64768
L 231.45408 140.112
L 231.63264 140.112
L 232.16832 139.57632
L 232.34688 139.04064
L 232.52544 139.04064
L 232.704 138.50496
L 232.88256 138.50496
L 233.23968 138.14784
L 233.41824 138.14784
L 233.5968 137.79072
L 233.77536 137.79072
L 233.95392 137.25504
L 234.13248 137.25504
L 234.31104 136.89792
L 234.4896 136.89792
L 234.84672 136.5408
L 235.3824 136.5408
L 236.09664 135.82656
L 236.2752 135.82656
L 236.45376 135.648
L 236.63232 135.648
L 236.81088 135.46944
L 236.98944 135.11232
L 237.168 135.11232
L 237.34656 134.7552
L 237.52512 134.7552
L 237.70368 134.39808
L 237.88224 134.39808
L 238.77504 133.50528
L 238.9536 133.50528
L 239.13216 133.14816
L 239.31072 133.14816
L 239.48928 132.79104
L 239.66784 132.79104
L 240.02496 132.43392
L 240.20352 132.43392
L 241.09632 130.64832
L 241.27488 130.64832
L 241.45344 130.11264
L 241.632 130.11264
L 241.81056 129.93408
L 241.98912 129.93408
L 242.5248 129.3984
L 242.70336 129.3984
L 242.88192 129.21984
L 243.06048 129.21984
L 243.23904 129.04128
L 243.4176 129.04128
L 243.95328 128.14848
L 244.13184 128.14848
L 244.3104 127.6128
L 244.48896 127.6128
L 244.84608 126.72
L 244.84608 126.72
" style="fill:none;stroke:#ff0000;stroke-linecap:square;"/>
   </g>
   <g id="line2d_4">
    <path clip-path="url(#p21b2f77d53)" d="M 72 305.28
L 72.8928 304.3872
L 73.07136 304.3872
L 73.60704 303.85152
L 73.7856 303.85152
L 73.96416 303.31584
L 74.14272 303.31584
L 74.49984 302.95872
L 74.6784 302.95872
L 75.03552 302.6016
L 75.92832 300.99456
L 76.10688 300.99456
L 76.28544 300.816
L 76.464 300.816
L 76.64256 300.28032
L 76.82112 300.28032
L 76.99968 300.10176
L 77.17824 300.10176
L 77.3568 299.56608
L 77.53536 299.56608
L 77.89248 299.0304
L 78.07104 298.85184
L 78.2496 298.85184
L 78.42816 298.49472
L 78.60672 298.49472
L 78.78528 298.1376
L 79.32096 298.1376
L 79.49952 297.95904
L 79.67808 297.95904
L 79.85664 297.60192
L 80.0352 297.60192
L 80.21376 297.2448
L 80.57088 297.2448
L 81.46368 295.63776
L 81.64224 295.4592
L 81.99936 294.92352
L 82.35648 294.5664
L 82.53504 294.5664
L 82.7136 294.38784
L 83.07072 293.85216
L 83.24928 293.85216
L 83.42784 293.6736
L 83.6064 293.31648
L 83.78496 293.31648
L 84.14208 292.95936
L 84.32064 292.42368
L 84.85632 291.888
L 85.03488 291.888
L 85.21344 291.70944
L 85.392 291.70944
L 85.57056 291.53088
L 85.92768 290.9952
L 86.10624 290.9952
L 86.2848 290.81664
L 86.46336 290.45952
L 86.64192 290.45952
L 86.82048 290.28096
L 86.99904 290.28096
L 87.1776 290.1024
L 87.53472 290.1024
L 87.71328 289.74528
L 87.89184 289.74528
L 88.0704 289.56672
L 88.24896 289.2096
L 88.42752 289.2096
L 88.60608 288.85248
L 88.78464 288.85248
L 88.9632 288.67392
L 89.14176 288.67392
L 89.32032 288.3168
L 89.49888 288.3168
L 90.03456 287.78112
L 90.21312 287.78112
L 90.39168 287.60256
L 90.7488 287.06688
L 90.92736 286.88832
L 91.10592 286.5312
L 91.28448 286.5312
L 91.46304 286.35264
L 91.6416 285.99552
L 91.82016 285.99552
L 92.17728 285.45984
L 92.35584 285.28128
L 92.5344 285.28128
L 92.71296 285.10272
L 93.24864 284.20992
L 93.4272 284.20992
L 93.60576 284.03136
L 93.78432 284.03136
L 94.32 283.49568
L 94.49856 283.49568
L 94.67712 283.31712
L 95.2128 282.42432
L 95.39136 282.42432
L 95.56992 282.24576
L 95.74848 282.24576
L 95.92704 282.0672
L 96.1056 281.71008
L 96.28416 281.71008
L 96.9984 280.99584
L 97.35552 280.99584
L 97.71264 280.46016
L 97.8912 280.46016
L 98.06976 280.10304
L 98.24832 280.10304
L 98.42688 279.56736
L 98.784 279.56736
L 98.96256 279.21024
L 99.14112 279.21024
L 99.49824 278.31744
L 99.6768 278.31744
L 99.85536 277.78176
L 100.21248 277.78176
L 100.5696 277.42464
L 100.74816 277.42464
L 101.10528 276.88896
L 101.28384 276.88896
L 101.4624 276.53184
L 101.64096 276.53184
L 101.81952 276.17472
L 101.99808 276.17472
L 102.3552 275.8176
L 102.53376 275.8176
L 102.71232 275.63904
L 102.89088 275.63904
L 103.06944 275.46048
L 103.248 275.10336
L 103.42656 275.10336
L 103.96224 274.56768
L 104.1408 274.56768
L 104.49792 273.67488
L 104.85504 273.67488
L 105.0336 273.49632
L 105.21216 273.1392
L 105.39072 273.1392
L 105.56928 272.96064
L 106.10496 272.06784
L 106.28352 272.06784
L 106.46208 271.71072
L 106.64064 271.71072
L 106.99776 271.17504
L 107.17632 271.17504
L 107.53344 270.81792
L 107.89056 270.81792
L 108.06912 270.28224
L 108.6048 269.74656
L 108.78336 269.74656
L 108.96192 269.568
L 109.14048 269.568
L 109.31904 269.38944
L 109.4976 269.38944
L 109.85472 269.03232
L 111.10464 266.71104
L 111.2832 266.53248
L 111.46176 266.53248
L 111.81888 265.9968
L 111.99744 265.81824
L 112.176 265.81824
L 112.35456 265.28256
L 112.53312 265.28256
L 112.89024 264.74688
L 113.0688 264.74688
L 113.24736 264.56832
L 113.42592 264.56832
L 113.78304 264.03264
L 113.9616 263.85408
L 114.14016 263.85408
L 114.31872 263.3184
L 114.49728 263.3184
L 114.67584 262.96128
L 114.8544 262.96128
L 115.03296 262.60416
L 115.21152 262.60416
L 115.39008 262.24704
L 115.7472 262.24704
L 115.92576 262.06848
L 116.10432 262.06848
L 116.64 261.17568
L 116.81856 261.17568
L 116.99712 260.99712
L 117.17568 260.99712
L 117.35424 260.81856
L 117.5328 260.81856
L 117.71136 260.28288
L 117.88992 260.28288
L 118.06848 259.7472
L 118.24704 259.7472
L 118.60416 259.39008
L 118.78272 259.39008
L 118.96128 259.21152
L 119.13984 259.21152
L 119.3184 258.8544
L 119.67552 258.8544
L 120.03264 257.9616
L 120.2112 257.9616
L 120.38976 257.78304
L 120.56832 257.78304
L 120.74688 257.42592
L 120.92544 257.42592
L 121.104 257.0688
L 121.46112 257.0688
L 121.63968 256.71168
L 121.81824 256.71168
L 121.9968 256.53312
L 122.17536 256.53312
L 122.35392 256.35456
L 122.53248 256.35456
L 122.71104 256.176
L 122.8896 256.176
L 123.24672 255.64032
L 123.42528 255.64032
L 123.7824 255.10464
L 124.13952 254.74752
L 124.49664 254.21184
L 124.6752 254.21184
L 124.85376 254.03328
L 125.03232 254.03328
L 125.38944 253.67616
L 125.568 253.31904
L 125.74656 253.31904
L 126.4608 252.6048
L 126.63936 252.6048
L 126.81792 252.42624
L 126.99648 252.42624
L 127.17504 252.24768
L 127.3536 252.24768
L 127.88928 251.35488
L 128.06784 251.17632
L 128.2464 251.17632
L 128.42496 250.99776
L 128.60352 250.99776
L 129.31776 250.28352
L 129.49632 250.28352
L 129.85344 249.56928
L 130.032 249.56928
L 130.38912 249.21216
L 130.56768 249.21216
L 130.74624 249.0336
L 130.9248 249.0336
L 131.10336 248.85504
L 131.28192 248.85504
L 131.46048 248.49792
L 131.63904 248.49792
L 132.17472 247.96224
L 132.35328 247.96224
L 132.88896 247.06944
L 133.24608 246.71232
L 133.42464 246.71232
L 133.6032 246.53376
L 133.78176 246.53376
L 133.96032 246.3552
L 134.13888 246.3552
L 134.31744 245.81952
L 134.496 245.81952
L 134.85312 245.28384
L 135.03168 245.28384
L 135.3888 244.92672
L 135.56736 244.92672
L 135.74592 244.74816
L 135.92448 244.74816
L 136.10304 244.5696
L 136.2816 244.5696
L 136.46016 244.39104
L 136.63872 244.39104
L 136.99584 244.03392
L 137.1744 244.03392
L 137.53152 243.49824
L 137.71008 243.31968
L 137.88864 243.31968
L 138.0672 243.14112
L 138.42432 242.24832
L 138.78144 240.9984
L 138.96 240.9984
L 139.13856 240.46272
L 139.31712 240.46272
L 139.49568 240.28416
L 140.03136 239.2128
L 140.20992 239.2128
L 140.38848 238.67712
L 140.56704 238.49856
L 140.92416 238.49856
L 141.28128 238.14144
L 141.45984 238.14144
L 141.99552 237.60576
L 142.17408 237.60576
L 142.5312 237.24864
L 142.88832 236.5344
L 143.06688 236.5344
L 143.24544 236.35584
L 143.60256 235.82016
L 143.78112 235.6416
L 144.13824 235.6416
L 144.3168 235.28448
L 144.49536 235.28448
L 144.67392 235.10592
L 144.85248 235.10592
L 145.03104 234.7488
L 145.2096 234.7488
L 145.38816 234.57024
L 145.56672 234.21312
L 145.74528 233.49888
L 145.92384 233.49888
L 146.28096 232.9632
L 146.45952 232.9632
L 146.81664 232.42752
L 146.9952 232.42752
L 147.35232 231.71328
L 147.53088 231.71328
L 148.06656 230.82048
L 148.24512 230.64192
L 148.42368 230.64192
L 148.60224 230.46336
L 148.95936 230.46336
L 149.13792 230.10624
L 149.49504 230.10624
L 149.6736 229.57056
L 149.85216 229.392
L 150.20928 229.392
L 150.5664 229.03488
L 150.74496 229.03488
L 151.10208 228.67776
L 151.28064 228.67776
L 151.4592 228.32064
L 151.63776 228.32064
L 151.81632 227.96352
L 151.99488 227.96352
L 152.17344 227.78496
L 152.352 227.78496
L 152.88768 226.89216
L 153.06624 226.89216
L 153.2448 226.35648
L 153.42336 226.35648
L 153.78048 225.8208
L 154.49472 225.10656
L 154.67328 225.10656
L 154.85184 224.928
L 155.0304 224.928
L 155.20896 224.57088
L 155.38752 224.57088
L 155.74464 224.21376
L 155.9232 224.21376
L 156.10176 223.85664
L 156.28032 223.85664
L 156.45888 223.67808
L 156.63744 223.32096
L 156.816 223.32096
L 156.99456 222.96384
L 157.17312 222.2496
L 157.35168 222.2496
L 157.53024 221.89248
L 157.7088 221.89248
L 158.06592 221.53536
L 158.24448 221.53536
L 158.42304 221.3568
L 158.6016 221.3568
L 158.78016 220.99968
L 158.95872 220.99968
L 159.13728 220.82112
L 159.31584 220.82112
L 159.4944 220.64256
L 159.67296 220.64256
L 160.03008 220.10688
L 160.20864 220.10688
L 160.3872 219.92832
L 160.56576 219.92832
L 160.74432 219.74976
L 161.10144 219.74976
L 161.63712 218.85696
L 161.81568 218.6784
L 161.99424 218.6784
L 162.35136 218.32128
L 162.52992 218.32128
L 162.88704 217.96416
L 163.0656 217.96416
L 163.60128 217.42848
L 163.77984 217.42848
L 164.31552 216.8928
L 164.49408 216.8928
L 164.8512 216.53568
L 165.02976 216.53568
L 165.38688 216
L 165.56544 216
L 166.27968 215.28576
L 166.81536 214.39296
L 166.99392 214.39296
L 167.35104 214.03584
L 167.70816 214.03584
L 168.24384 213.14304
L 168.4224 212.96448
L 168.60096 212.96448
L 169.13664 212.4288
L 169.49376 212.4288
L 169.67232 211.89312
L 169.85088 211.89312
L 170.208 211.536
L 170.38656 211.536
L 170.74368 211.00032
L 170.92224 210.82176
L 171.1008 210.82176
L 171.45792 210.28608
L 171.63648 210.28608
L 172.35072 209.03616
L 172.52928 208.8576
L 172.70784 208.8576
L 172.8864 208.67904
L 173.06496 208.67904
L 173.24352 208.32192
L 173.42208 208.32192
L 173.7792 207.9648
L 174.13632 207.42912
L 174.31488 207.25056
L 174.49344 207.25056
L 174.672 207.072
L 174.85056 206.53632
L 175.02912 206.53632
L 175.5648 206.00064
L 175.74336 205.64352
L 175.92192 205.64352
L 176.10048 205.10784
L 176.27904 204.92928
L 176.4576 204.57216
L 176.63616 204.57216
L 176.99328 204.21504
L 177.17184 203.85792
L 177.3504 203.85792
L 177.88608 203.32224
L 178.06464 203.32224
L 178.42176 202.96512
L 178.60032 202.96512
L 178.77888 202.78656
L 178.95744 202.78656
L 179.136 202.608
L 179.31456 202.07232
L 179.49312 202.07232
L 179.85024 201.7152
L 180.20736 201.7152
L 181.10016 199.9296
L 181.45728 199.9296
L 181.63584 199.75104
L 181.8144 199.39392
L 181.99296 199.39392
L 182.17152 199.21536
L 182.35008 199.21536
L 183.06432 197.78688
L 183.24288 197.78688
L 183.42144 197.60832
L 183.6 197.60832
L 183.77856 197.42976
L 183.95712 196.71552
L 184.13568 196.71552
L 184.4928 196.17984
L 184.67136 196.17984
L 185.20704 195.64416
L 185.3856 195.64416
L 185.92128 194.75136
L 186.09984 194.75136
L 186.2784 194.5728
L 186.63552 193.85856
L 186.81408 193.85856
L 186.99264 193.68
L 187.1712 193.32288
L 187.34976 193.32288
L 187.52832 193.14432
L 187.70688 193.14432
L 187.88544 192.96576
L 188.064 192.96576
L 188.24256 192.7872
L 188.42112 192.7872
L 188.59968 192.43008
L 188.77824 192.43008
L 189.13536 191.71584
L 189.31392 191.71584
L 189.49248 191.35872
L 189.67104 190.64448
L 189.8496 190.64448
L 190.02816 190.1088
L 190.38528 190.1088
L 190.92096 189.216
L 191.09952 189.03744
L 191.27808 189.03744
L 191.99232 187.78752
L 192.528 187.25184
L 192.70656 187.25184
L 193.4208 186.5376
L 193.77792 186.5376
L 194.13504 186.18048
L 194.3136 186.18048
L 194.84928 185.6448
L 195.02784 185.6448
L 195.56352 184.03776
L 195.74208 183.8592
L 195.92064 183.8592
L 196.0992 183.14496
L 196.27776 183.14496
L 196.63488 182.60928
L 196.81344 182.43072
L 196.992 182.0736
L 197.17056 182.0736
L 197.34912 181.89504
L 197.8848 181.00224
L 198.06336 181.00224
L 198.42048 180.10944
L 199.13472 178.14528
L 199.31328 178.14528
L 199.49184 177.96672
L 199.6704 177.96672
L 199.84896 177.6096
L 200.20608 177.6096
L 200.5632 177.25248
L 200.74176 177.25248
L 201.09888 176.00256
L 201.456 175.64544
L 201.63456 175.64544
L 201.81312 175.46688
L 201.99168 175.10976
L 202.3488 175.10976
L 202.52736 174.75264
L 202.70592 174.75264
L 202.88448 174.57408
L 203.06304 174.57408
L 203.42016 173.68128
L 203.59872 173.50272
L 204.1344 172.60992
L 204.31296 172.60992
L 204.49152 172.2528
L 204.67008 172.2528
L 205.20576 171.71712
L 205.56288 171.18144
L 206.27712 170.4672
L 206.45568 170.4672
L 206.63424 170.28864
L 206.99136 169.39584
L 207.16992 169.39584
L 207.34848 168.86016
L 207.52704 168.86016
L 208.24128 167.61024
L 208.41984 167.43168
L 208.5984 167.43168
L 209.13408 166.18176
L 209.4912 165.28896
L 209.66976 165.1104
L 209.84832 164.75328
L 210.02688 164.75328
L 210.384 164.2176
L 210.56256 164.2176
L 210.74112 163.86048
L 210.91968 163.86048
L 211.09824 163.68192
L 211.2768 163.68192
L 211.63392 163.3248
L 211.81248 163.3248
L 211.99104 162.96768
L 212.34816 162.96768
L 212.52672 162.78912
L 212.70528 162.78912
L 212.88384 162.25344
L 213.0624 162.07488
L 213.24096 162.07488
L 213.41952 161.89632
L 213.59808 161.89632
L 213.77664 161.71776
L 214.13376 161.18208
L 214.31232 161.18208
L 214.49088 161.00352
L 214.66944 160.6464
L 215.02656 160.6464
L 215.38368 159.93216
L 215.56224 159.93216
L 215.7408 159.57504
L 215.91936 159.57504
L 216.27648 159.21792
L 216.45504 159.21792
L 216.81216 158.8608
L 216.99072 158.8608
L 217.70496 158.14656
L 218.06208 157.43232
L 218.24064 157.43232
L 218.4192 157.25376
L 218.59776 157.25376
L 218.77632 157.0752
L 218.95488 157.0752
L 219.13344 156.89664
L 219.49056 156.1824
L 219.66912 156.1824
L 219.84768 156.00384
L 220.02624 156.00384
L 220.56192 155.11104
L 220.74048 154.93248
L 220.91904 154.93248
L 221.0976 154.75392
L 221.63328 153.68256
L 221.81184 153.68256
L 222.34752 153.14688
L 222.52608 153.14688
L 222.70464 152.78976
L 222.8832 152.78976
L 223.06176 152.6112
L 223.24032 152.6112
L 223.95456 151.89696
L 224.13312 151.89696
L 224.31168 151.53984
L 224.6688 151.53984
L 225.20448 151.00416
L 225.38304 151.00416
L 225.74016 150.11136
L 225.91872 149.75424
L 226.09728 149.75424
L 226.27584 149.57568
L 226.4544 149.57568
L 226.63296 149.39712
L 226.81152 149.39712
L 228.06144 148.1472
L 228.77568 146.71872
L 228.95424 146.71872
L 229.48992 145.82592
L 229.84704 145.4688
L 230.0256 145.4688
L 230.20416 145.11168
L 230.38272 145.11168
L 230.9184 144.576
L 231.27552 143.86176
L 231.63264 143.86176
L 231.8112 143.6832
L 232.16832 143.14752
L 232.34688 143.14752
L 232.52544 142.7904
L 232.704 142.7904
L 233.06112 142.43328
L 233.41824 142.43328
L 233.5968 142.07616
L 233.77536 142.07616
L 233.95392 141.8976
L 234.31104 141.36192
L 234.4896 141.36192
L 234.84672 141.0048
L 235.02528 141.0048
L 235.20384 140.82624
L 235.3824 140.82624
L 235.73952 140.112
L 235.91808 140.112
L 236.2752 139.75488
L 236.45376 139.75488
L 236.63232 139.57632
L 237.168 138.68352
L 237.34656 138.68352
L 237.52512 138.3264
L 237.70368 138.3264
L 237.88224 137.61216
L 238.41792 137.07648
L 238.77504 137.07648
L 239.13216 136.71936
L 239.31072 136.36224
L 239.48928 136.36224
L 239.66784 136.00512
L 239.8464 136.00512
L 240.02496 135.82656
L 240.38208 135.11232
L 240.56064 135.11232
L 241.09632 134.57664
L 241.27488 134.57664
L 241.45344 134.04096
L 241.632 134.04096
L 242.16768 133.14816
L 242.34624 132.9696
L 242.5248 132.9696
L 242.70336 132.61248
L 242.88192 132.61248
L 243.06048 132.43392
L 243.59616 131.54112
L 243.95328 131.184
L 244.3104 131.184
L 244.66752 130.82688
L 244.84608 130.82688
L 245.02464 130.2912
L 245.2032 130.11264
L 245.38176 130.11264
L 245.56032 129.93408
L 245.91744 129.93408
L 246.096 129.75552
L 246.27456 129.75552
L 246.63168 129.21984
L 246.9888 128.86272
L 247.16736 128.86272
L 247.34592 128.5056
L 247.52448 128.5056
L 247.70304 127.96992
L 247.8816 127.79136
L 248.06016 127.79136
L 248.59584 127.25568
L 248.95296 126.72
L 248.95296 126.72
" style="fill:none;stroke:#00bfbf;stroke-linecap:square;"/>
   </g>
   <g id="patch_3">
    <path d="M 72 126.72
L 518.4 126.72
" style="fill:none;stroke:#000000;stroke-linecap:square;stroke-linejoin:miter;"/>
   </g>
   <g id="patch_4">
    <path d="M 72 305.28
L 72 126.72
" style="fill:none;stroke:#000000;stroke-linecap:square;stroke-linejoin:miter;"/>
   </g>
   <g id="patch_5">
    <path d="M 518.4 305.28
L 518.4 126.72
" style="fill:none;stroke:#000000;stroke-linecap:square;stroke-linejoin:miter;"/>
   </g>
   <g id="patch_6">
    <path d="M 72 305.28
L 518.4 305.28
" style="fill:none;stroke:#000000;stroke-linecap:square;stroke-linejoin:miter;"/>
   </g>
   <g id="matplotlib.axis_1">
    <g id="xtick_1">
     <g id="line2d_5">
      <defs>
       <path d="M 0 0
L 0 -4
" id="m57925ee891" style="stroke:#000000;stroke-width:0.5;"/>
      </defs>
      <g>
       <use style="stroke:#000000;stroke-width:0.5;" x="72.0" xlink:href="#m57925ee891" y="305.28"/>
      </g>
     </g>
     <g id="line2d_6">
      <defs>
       <path d="M 0 0
L 0 4
" id="m93d16a51ce" style="stroke:#000000;stroke-width:0.5;"/>
      </defs>
      <g>
       <use style="stroke:#000000;stroke-width:0.5;" x="72.0" xlink:href="#m93d16a51ce" y="126.72"/>
      </g>
     </g>
     <g id="text_1">
      <text style="font-family:Bitstream Vera Sans;font-size:12.0px;font-style:normal;font-weight:400;text-anchor:middle;" transform="rotate(-0.000000, 72.000000, 318.398125)" x="72.0" y="318.398125">0</text>
     </g>
    </g>
    <g id="xtick_2">
     <g id="line2d_7">
      <g>
       <use style="stroke:#000000;stroke-width:0.5;" x="161.28" xlink:href="#m57925ee891" y="305.28"/>
      </g>
     </g>
     <g id="line2d_8">
      <g>
       <use style="stroke:#000000;stroke-width:0.5;" x="161.28" xlink:href="#m93d16a51ce" y="126.72"/>
      </g>
     </g>
     <g id="text_2">
      <text style="font-family:Bitstream Vera Sans;font-size:12.0px;font-style:normal;font-weight:400;text-anchor:middle;" transform="rotate(-0.000000, 161.280000, 318.398125)" x="161.28" y="318.398125">500</text>
     </g>
    </g>
    <g id="xtick_3">
     <g id="line2d_9">
      <g>
       <use style="stroke:#000000;stroke-width:0.5;" x="250.56" xlink:href="#m57925ee891" y="305.28"/>
      </g>
     </g>
     <g id="line2d_10">
      <g>
       <use style="stroke:#000000;stroke-width:0.5;" x="250.56" xlink:href="#m93d16a51ce" y="126.72"/>
      </g>
     </g>
     <g id="text_3">
      <text style="font-family:Bitstream Vera Sans;font-size:12.0px;font-style:normal;font-weight:400;text-anchor:middle;" transform="rotate(-0.000000, 250.560000, 318.398125)" x="250.56" y="318.398125">1000</text>
     </g>
    </g>
    <g id="xtick_4">
     <g id="line2d_11">
      <g>
       <use style="stroke:#000000;stroke-width:0.5;" x="339.84" xlink:href="#m57925ee891" y="305.28"/>
      </g>
     </g>
     <g id="line2d_12">
      <g>
       <use style="stroke:#000000;stroke-width:0.5;" x="339.84" xlink:href="#m93d16a51ce" y="126.72"/>
      </g>
     </g>
     <g id="text_4">
      <text style="font-family:Bitstream Vera Sans;font-size:12.0px;font-style:normal;font-weight:400;text-anchor:middle;" transform="rotate(-0.000000, 339.840000, 318.398125)" x="339.84" y="318.398125">1500</text>
     </g>
    </g>
    <g id="xtick_5">
     <g id="line2d_13">
      <g>
       <use style="stroke:#000000;stroke-width:0.5;" x="429.12" xlink:href="#m57925ee891" y="305.28"/>
      </g>
     </g>
     <g id="line2d_14">
      <g>
       <use style="stroke:#000000;stroke-width:0.5;" x="429.12" xlink:href="#m93d16a51ce" y="126.72"/>
      </g>
     </g>
     <g id="text_5">
      <text style="font-family:Bitstream Vera Sans;font-size:12.0px;font-style:normal;font-weight:400;text-anchor:middle;" transform="rotate(-0.000000, 429.120000, 318.398125)" x="429.12" y="318.398125">2000</text>
     </g>
    </g>
    <g id="xtick_6">
     <g id="line2d_15">
      <g>
       <use style="stroke:#000000;stroke-width:0.5;" x="518.4" xlink:href="#m57925ee891" y="305.28"/>
      </g>
     </g>
     <g id="line2d_16">
      <g>
       <use style="stroke:#000000;stroke-width:0.5;" x="518.4" xlink:href="#m93d16a51ce" y="126.72"/>
      </g>
     </g>
     <g id="text_6">
      <text style="font-family:Bitstream Vera Sans;font-size:12.0px;font-style:normal;font-weight:400;text-anchor:middle;" transform="rotate(-0.000000, 518.400000, 318.398125)" x="518.4" y="318.398125">2500</text>
     </g>
    </g>
    <g id="text_7">
     <text style="font-family:Bitstream Vera Sans;font-size:12.0px;font-style:normal;font-weight:400;text-anchor:middle;" transform="rotate(-0.000000, 295.200000, 335.011875)" x="295.2" y="335.011875">Coefficients</text>
    </g>
   </g>
   <g id="matplotlib.axis_2">
    <g id="ytick_1">
     <g id="line2d_17">
      <defs>
       <path d="M 0 0
L 4 0
" id="md2178fb7c5" style="stroke:#000000;stroke-width:0.5;"/>
      </defs>
      <g>
       <use style="stroke:#000000;stroke-width:0.5;" x="72.0" xlink:href="#md2178fb7c5" y="305.28"/>
      </g>
     </g>
     <g id="line2d_18">
      <defs>
       <path d="M 0 0
L -4 0
" id="mcb767382f6" style="stroke:#000000;stroke-width:0.5;"/>
      </defs>
      <g>
       <use style="stroke:#000000;stroke-width:0.5;" x="518.4" xlink:href="#mcb767382f6" y="305.28"/>
      </g>
     </g>
     <g id="text_8">
      <text style="font-family:Bitstream Vera Sans;font-size:12.0px;font-style:normal;font-weight:400;text-anchor:end;" transform="rotate(-0.000000, 68.000000, 308.591250)" x="68.0" y="308.59125">0</text>
     </g>
    </g>
    <g id="ytick_2">
     <g id="line2d_19">
      <g>
       <use style="stroke:#000000;stroke-width:0.5;" x="72.0" xlink:href="#md2178fb7c5" y="269.568"/>
      </g>
     </g>
     <g id="line2d_20">
      <g>
       <use style="stroke:#000000;stroke-width:0.5;" x="518.4" xlink:href="#mcb767382f6" y="269.568"/>
      </g>
     </g>
     <g id="text_9">
      <text style="font-family:Bitstream Vera Sans;font-size:12.0px;font-style:normal;font-weight:400;text-anchor:end;" transform="rotate(-0.000000, 68.000000, 272.879250)" x="68.0" y="272.87925">200</text>
     </g>
    </g>
    <g id="ytick_3">
     <g id="line2d_21">
      <g>
       <use style="stroke:#000000;stroke-width:0.5;" x="72.0" xlink:href="#md2178fb7c5" y="233.856"/>
      </g>
     </g>
     <g id="line2d_22">
      <g>
       <use style="stroke:#000000;stroke-width:0.5;" x="518.4" xlink:href="#mcb767382f6" y="233.856"/>
      </g>
     </g>
     <g id="text_10">
      <text style="font-family:Bitstream Vera Sans;font-size:12.0px;font-style:normal;font-weight:400;text-anchor:end;" transform="rotate(-0.000000, 68.000000, 237.167250)" x="68.0" y="237.16725">400</text>
     </g>
    </g>
    <g id="ytick_4">
     <g id="line2d_23">
      <g>
       <use style="stroke:#000000;stroke-width:0.5;" x="72.0" xlink:href="#md2178fb7c5" y="198.144"/>
      </g>
     </g>
     <g id="line2d_24">
      <g>
       <use style="stroke:#000000;stroke-width:0.5;" x="518.4" xlink:href="#mcb767382f6" y="198.144"/>
      </g>
     </g>
     <g id="text_11">
      <text style="font-family:Bitstream Vera Sans;font-size:12.0px;font-style:normal;font-weight:400;text-anchor:end;" transform="rotate(-0.000000, 68.000000, 201.455250)" x="68.0" y="201.45525">600</text>
     </g>
    </g>
    <g id="ytick_5">
     <g id="line2d_25">
      <g>
       <use style="stroke:#000000;stroke-width:0.5;" x="72.0" xlink:href="#md2178fb7c5" y="162.432"/>
      </g>
     </g>
     <g id="line2d_26">
      <g>
       <use style="stroke:#000000;stroke-width:0.5;" x="518.4" xlink:href="#mcb767382f6" y="162.432"/>
      </g>
     </g>
     <g id="text_12">
      <text style="font-family:Bitstream Vera Sans;font-size:12.0px;font-style:normal;font-weight:400;text-anchor:end;" transform="rotate(-0.000000, 68.000000, 165.743250)" x="68.0" y="165.74325">800</text>
     </g>
    </g>
    <g id="ytick_6">
     <g id="line2d_27">
      <g>
       <use style="stroke:#000000;stroke-width:0.5;" x="72.0" xlink:href="#md2178fb7c5" y="126.72"/>
      </g>
     </g>
     <g id="line2d_28">
      <g>
       <use style="stroke:#000000;stroke-width:0.5;" x="518.4" xlink:href="#mcb767382f6" y="126.72"/>
      </g>
     </g>
     <g id="text_13">
      <text style="font-family:Bitstream Vera Sans;font-size:12.0px;font-style:normal;font-weight:400;text-anchor:end;" transform="rotate(-0.000000, 68.000000, 130.031250)" x="68.0" y="130.03125">1000</text>
     </g>
    </g>
    <g id="text_14">
     <text style="font-family:Bitstream Vera Sans;font-size:12.0px;font-style:normal;font-weight:400;text-anchor:middle;" transform="rotate(-90.000000, 29.964375, 216.000000)" x="29.964375" y="216.0">Digits</text>
    </g>
   </g>
   <g id="legend_1">
    <g id="patch_7">
     <path d="M 403.5105 298.08
L 511.2 298.08
L 511.2 209.214
L 403.5105 209.214
z
" style="fill:#ffffff;stroke:#000000;stroke-linejoin:miter;"/>
    </g>
    <g id="line2d_29">
     <path d="M 413.5905 220.87575
L 433.7505 220.87575
" style="fill:none;stroke:#0000ff;stroke-linecap:square;"/>
    </g>
    <g id="line2d_30"/>
    <g id="text_15">
     <text style="font-family:Bitstream Vera Sans;font-size:14.399999999999999px;font-style:normal;font-weight:400;text-anchor:start;" transform="rotate(-0.000000, 449.590500, 225.915750)" x="449.5905" y="225.91575"></text>
    </g>
    <g id="line2d_31">
     <path d="M 413.5905 242.01225
L 433.7505 242.01225
" style="fill:none;stroke:#008000;stroke-linecap:square;"/>
    </g>
    <g id="line2d_32"/>
    <g id="text_16">
     <text style="font-family:Bitstream Vera Sans;font-size:14.399999999999999px;font-style:normal;font-weight:400;text-anchor:start;" transform="rotate(-0.000000, 449.590500, 247.052250)" x="449.5905" y="247.05225">random</text>
    </g>
    <g id="line2d_33">
     <path d="M 413.5905 263.14875
L 433.7505 263.14875
" style="fill:none;stroke:#ff0000;stroke-linecap:square;"/>
    </g>
    <g id="line2d_34"/>
    <g id="text_17">
     <text style="font-family:Bitstream Vera Sans;font-size:14.399999999999999px;font-style:normal;font-weight:400;text-anchor:start;" transform="rotate(-0.000000, 449.590500, 268.188750)" x="449.5905" y="268.18875">random</text>
    </g>
    <g id="line2d_35">
     <path d="M 413.5905 284.28525
L 433.7505 284.28525
" style="fill:none;stroke:#00bfbf;stroke-linecap:square;"/>
    </g>
    <g id="line2d_36"/>
    <g id="text_18">
     <text style="font-family:Bitstream Vera Sans;font-size:14.399999999999999px;font-style:normal;font-weight:400;text-anchor:start;" transform="rotate(-0.000000, 449.590500, 289.325250)" x="449.5905" y="289.32525">random</text>
    </g>
   </g>
  </g>
 </g>
 <defs>
  <clipPath id="p21b2f77d53">
   <rect height="178.56" width="446.4" x="72.0" y="126.72"/>
  </clipPath>
 </defs>
</svg>
